<?xml version="1.0" encoding="utf-8"?>
<svg version="1.1" xmlns="http://www.w3.org/2000/svg" xmlns:xlink="http://www.w3.org/1999/xlink" x="0px" y="0px"
	 viewBox="0 0 548.7 148.8" style="enable-background:new 0 0 548.7 148.8;" xml:space="preserve">
<style type="text/css">
	.st0{opacity:0.6;fill:#464646;}
	.st1{fill:#49098B;}
	.st2{fill:#3F9ED1;}
	.st3{fill:#027708;}
	.st4{fill:#FED101;}
	.st5{fill:#FE760F;}
	.st6{fill:#000222;}
	.st7{fill:#222222;}
	.st8{opacity:0.5;fill:#505050;}
	.st9{fill:#0D0052;}
	.st10{fill:#BF0000;}
</style>
<title>FACTTIC</title>
<g>
	<g>
		<g>
			<g>
				<path class="st0" d="M37.5,129.1v16.3H21.2v-16.3H37.5z"/>
				<path class="st0" d="M58.6,129.1v16.3H42.3v-16.3H58.6z"/>
				<path class="st0" d="M79.8,129.1v16.3H63.5v-16.3H79.8z"/>
				<path class="st0" d="M101,129.1v16.3H84.7v-16.3H101z"/>
				<path class="st0" d="M122.2,129.1v16.3h-16.3v-16.3H122.2z"/>
				<path class="st0" d="M143.3,129.1v16.3H127v-16.3H143.3z"/>
				<path class="st1" d="M38.4,116.1c0,5-4,9-9,9s-9-4-9-9s4-9,9-9S38.4,111.1,38.4,116.1z"/>
				<path class="st0" d="M58.6,108v16.3H42.3V108H58.6z"/>
				<path class="st2" d="M80.7,116.1c0,5-4,9-9,9s-9-4-9-9s4-9,9-9S80.7,111.1,80.7,116.1z"/>
				<path class="st0" d="M101,108v16.3H84.7V108H101z"/>
				<path class="st3" d="M123.1,116.1c0,5-4,9-9,9s-9-4-9-9s4-9,9-9S123.1,111.1,123.1,116.1z"/>
				<path class="st0" d="M143.3,108v16.3H127V108H143.3z"/>
				<path class="st0" d="M37.5,86.8v16.3H21.2V86.8H37.5z"/>
				<path class="st0" d="M58.6,86.8v16.3H42.3V86.8H58.6z"/>
				<path class="st0" d="M79.8,86.8v16.3H63.5V86.8H79.8z"/>
				<path class="st0" d="M101,86.8v16.3H84.7V86.8H101z"/>
				<path class="st0" d="M122.2,86.8v16.3h-16.3V86.8H122.2z"/>
				<path class="st0" d="M143.3,86.8v16.3H127V86.8H143.3z"/>
				<path class="st0" d="M37.5,65.6v16.3H21.2V65.6H37.5z"/>
				<path class="st0" d="M58.6,65.6v16.3H42.3V65.6H58.6z"/>
				<path class="st0" d="M79.8,65.6v16.3H63.5V65.6H79.8z"/>
				<path class="st0" d="M101,65.6v16.3H84.7V65.6H101z"/>
				<path class="st4" d="M123.1,73.8c0,5-4,9-9,9s-9-4-9-9s4-9,9-9S123.1,68.8,123.1,73.8z"/>
				<path class="st0" d="M143.3,65.6v16.3H127V65.6H143.3z"/>
				<path class="st0" d="M37.5,44.4v16.3H21.2V44.4H37.5z"/>
				<path class="st0" d="M58.6,44.4v16.3H42.3V44.4H58.6z"/>
				<path class="st0" d="M79.8,44.4v16.3H63.5V44.4H79.8z"/>
				<path class="st0" d="M101,44.4v16.3H84.7V44.4H101z"/>
				<path class="st0" d="M122.2,44.4v16.3h-16.3V44.4H122.2z"/>
				<path class="st0" d="M143.3,44.4v16.3H127V44.4H143.3z"/>
				<path class="st0" d="M37.5,23.3v16.3H21.2V23.3H37.5z"/>
				<path class="st0" d="M58.6,23.3v16.3H42.3V23.3H58.6z"/>
				<path class="st5" d="M80.7,31.4c0,5-4,9-9,9s-9-4-9-9s4-9,9-9S80.7,26.4,80.7,31.4z"/>
				<path class="st0" d="M101,23.3v16.3H84.7V23.3H101z"/>
				<path class="st0" d="M122.2,23.3v16.3h-16.3V23.3H122.2z"/>
				<path class="st0" d="M143.3,23.3v16.3H127V23.3H143.3z"/>
				<path class="st0" d="M37.5,2.2v16.3H21.2V2.2H37.5z"/>
				<path class="st0" d="M58.6,2.2v16.3H42.3V2.2H58.6z"/>
				<path class="st0" d="M79.8,2.2v16.3H63.5V2.2H79.8z"/>
				<path class="st0" d="M101,2.2v16.3H84.7V2.2H101z"/>
				<path class="st0" d="M122.2,2.2v16.3h-16.3V2.2H122.2z"/>
				<path class="st0" d="M143.3,2.2v16.3H127V2.2H143.3z"/>
				<path class="st0" d="M16.3,129.1v16.3H0v-16.3H16.3z"/>
				<path class="st0" d="M16.3,108v16.3H0V108H16.3z"/>
				<path class="st0" d="M16.3,86.8v16.3H0V86.8H16.3z"/>
				<path class="st0" d="M16.3,65.6v16.3H0V65.6H16.3z"/>
				<path class="st0" d="M16.3,44.4v16.3H0V44.4H16.3z"/>
				<path class="st0" d="M16.3,23.3v16.3H0V23.3H16.3z"/>
				<path class="st0" d="M16.3,2.2v16.3H0V2.2H16.3z"/>
			</g>
			<g>
				<path class="st6" d="M163.4,145c0.4-0.4,0.8-0.8,1-1.3c0.3-0.5,0.5-1.1,0.7-1.7c0.2-0.6,0.3-1.2,0.3-1.8
					c0.1-0.6,0.1-1.1,0.1-1.7c0-0.7-0.1-1.3-0.1-2c-0.1-0.7-0.3-1.4-0.5-2.1c-0.3-0.7-0.6-1.3-1.1-1.8c-0.5-0.5-1.1-0.9-1.8-1.1
					c-0.3-0.1-0.7-0.2-1-0.2h-1h-4V146h4.2c0.6,0,1.1-0.1,1.7-0.2C162.4,145.7,163,145.4,163.4,145 M161.9,133.3
					c0.4,0.2,0.8,0.5,1,0.9c0.3,0.4,0.5,0.9,0.6,1.4c0.1,0.5,0.2,1,0.3,1.5c0.1,0.5,0.1,1,0.1,1.4c0,0.5,0,1-0.1,1.6
					c0,0.5-0.1,1.1-0.3,1.6c-0.1,0.5-0.4,1-0.6,1.4c-0.3,0.4-0.6,0.7-1.1,0.9c-0.3,0.1-0.6,0.2-0.8,0.2c-0.3,0-0.6,0-0.9,0h-2.3V133
					h2.3c0.3,0,0.7,0,1,0.1C161.3,133.1,161.6,133.2,161.9,133.3"/>
				<path class="st6" d="M167.7,146h8.7v-1.7h-7v-5.1h5.8v-1.7h-5.8V133h6.7v-1.7h-8.4L167.7,146"/>
				<path class="st6" d="M187.3,132.9h3.8v-1.7h-9.2v1.7h3.7v13h1.7V132.9"/>
				<path class="st6" d="M192.8,146h8.7v-1.7h-7v-5.1h5.8v-1.7h-5.8V133h6.7v-1.7h-8.4L192.8,146"/>
				<path class="st6" d="M208.6,146.2c0.7,0,1.3-0.1,1.9-0.4c0.5-0.3,1-0.7,1.4-1.1c0.4-0.5,0.7-1,0.9-1.6
					c0.3-0.6,0.4-1.2,0.6-1.9l-1.7-0.5c-0.1,0.5-0.2,1-0.4,1.4c-0.2,0.4-0.4,0.9-0.6,1.2c-0.3,0.3-0.6,0.6-0.9,0.8
					c-0.4,0.2-0.9,0.3-1.3,0.3c-0.7,0-1.3-0.2-1.8-0.6c-0.5-0.4-0.8-0.9-1.1-1.5c-0.3-0.6-0.4-1.3-0.5-2c-0.1-0.7-0.1-1.3-0.1-2
					c0-0.7,0-1.3,0.1-2c0.1-0.7,0.3-1.3,0.6-1.9c0.2-0.6,0.6-1,1.1-1.4c0.5-0.4,1.2-0.6,1.8-0.6c0.4,0,0.8,0.1,1.1,0.2
					c0.3,0.1,0.6,0.4,0.8,0.6c0.2,0.3,0.4,0.6,0.6,0.9c0.2,0.4,0.3,0.8,0.4,1.2l1.7-0.5c-0.2-0.6-0.4-1.1-0.6-1.7
					c-0.3-0.5-0.6-0.9-1-1.3c-0.4-0.4-0.8-0.7-1.3-0.9c-0.5-0.2-1.1-0.3-1.7-0.3c-0.9,0-1.8,0.2-2.6,0.7c-0.7,0.5-1.3,1.1-1.7,1.8
					c-0.4,0.8-0.7,1.6-0.9,2.4c-0.2,0.8-0.3,1.7-0.3,2.5c0,0.9,0.1,1.8,0.2,2.7c0.2,0.9,0.4,1.7,0.9,2.5c0.4,0.8,1,1.5,1.7,2
					C206.8,146,207.7,146.3,208.6,146.2"/>
				<path class="st6" d="M222.9,146h1.7v-14.7h-1.7v10.9l-5.8-10.9h-1.7V146h1.7v-11L222.9,146"/>
				<path class="st6" d="M232.3,146.2c0.6,0,1.2-0.1,1.8-0.3c0.5-0.2,1-0.5,1.4-0.9c0.4-0.4,0.8-0.8,1.1-1.3
					c0.3-0.5,0.5-1,0.7-1.6c0.2-0.6,0.3-1.1,0.4-1.7c0.1-0.6,0.1-1.1,0.1-1.7c0-0.9-0.1-1.7-0.3-2.6c-0.2-0.9-0.5-1.7-0.9-2.5
					c-0.4-0.7-1-1.4-1.7-1.9c-0.8-0.5-1.7-0.8-2.6-0.7c-0.6,0-1.3,0.1-1.9,0.3c-0.5,0.2-1,0.5-1.4,0.9c-0.4,0.4-0.7,0.9-1,1.4
					c-0.3,0.5-0.5,1.1-0.7,1.6c-0.2,0.6-0.3,1.2-0.4,1.8c-0.1,0.6-0.1,1.2-0.1,1.8c0,0.9,0.1,1.7,0.3,2.5c0.2,0.8,0.5,1.6,1,2.4
					c0.4,0.7,1,1.3,1.7,1.8C230.5,146,231.4,146.2,232.3,146.2 M232.3,132.7c0.7,0,1.3,0.2,1.8,0.6c0.5,0.4,0.9,0.9,1.1,1.5
					c0.3,0.6,0.5,1.3,0.6,1.9c0.2,1.3,0.2,2.7,0,4c-0.1,0.7-0.3,1.3-0.6,1.9c-0.3,0.6-0.7,1-1.2,1.4c-1.1,0.7-2.5,0.7-3.6,0
					c-0.5-0.4-0.9-0.8-1.2-1.4c-0.3-0.6-0.5-1.2-0.6-1.9c-0.1-0.6-0.2-1.3-0.2-1.9c0-0.4,0-0.8,0-1.2c0-0.4,0.1-0.9,0.2-1.3
					c0.1-0.4,0.2-0.8,0.3-1.2c0.1-0.4,0.3-0.7,0.6-1c0.3-0.4,0.7-0.7,1.2-1C231.2,132.8,231.7,132.7,232.3,132.7"/>
				<path class="st6" d="M239.8,146h7.3v-1.7h-5.6v-13h-1.7V146"/>
				<path class="st6" d="M254.1,146.2c0.6,0,1.2-0.1,1.8-0.3c0.5-0.2,1-0.5,1.4-0.9c0.4-0.4,0.8-0.8,1.1-1.3
					c0.3-0.5,0.5-1,0.7-1.6c0.2-0.6,0.3-1.1,0.4-1.7c0.1-0.6,0.1-1.1,0.1-1.7c0-0.9-0.1-1.7-0.3-2.6c-0.2-0.9-0.5-1.7-1-2.5
					c-0.4-0.7-1-1.4-1.7-1.9c-0.8-0.5-1.7-0.8-2.6-0.7c-0.6,0-1.3,0.1-1.9,0.3c-0.5,0.2-1,0.5-1.4,0.9c-0.4,0.4-0.7,0.9-1,1.4
					c-0.3,0.5-0.5,1.1-0.7,1.6c-0.2,0.6-0.3,1.2-0.4,1.8c-0.1,0.6-0.1,1.2-0.1,1.8c0,0.9,0.1,1.7,0.3,2.5c0.2,0.8,0.5,1.6,1,2.4
					c0.4,0.7,1,1.3,1.7,1.8C252.4,146,253.2,146.2,254.1,146.2 M254.1,132.7c0.7,0,1.3,0.2,1.8,0.6c0.5,0.4,0.9,0.9,1.1,1.5
					c0.3,0.6,0.5,1.3,0.6,1.9c0.2,1.3,0.2,2.7,0,4c-0.1,0.7-0.3,1.3-0.6,1.9c-0.3,0.6-0.7,1.1-1.2,1.4c-1.1,0.7-2.5,0.7-3.6,0
					c-0.5-0.4-0.9-0.8-1.2-1.4c-0.3-0.6-0.5-1.2-0.6-1.9c-0.1-0.6-0.2-1.3-0.2-1.9c0-0.4,0-0.8,0-1.2c0-0.4,0.1-0.9,0.2-1.3
					c0.1-0.4,0.2-0.8,0.3-1.2c0.1-0.4,0.3-0.7,0.6-1c0.3-0.4,0.7-0.7,1.2-1C253.1,132.9,253.6,132.7,254.1,132.7"/>
				<path class="st6" d="M271.8,144h0.2v-5.5h-5.1v1.6h3.4v2.9c-0.4,0.4-0.9,0.8-1.5,1c-0.5,0.2-1.1,0.4-1.7,0.4
					c-0.7,0-1.4-0.1-2-0.5c-0.5-0.4-0.9-0.8-1.3-1.4c-0.3-0.6-0.5-1.2-0.7-1.9c-0.2-1.4-0.2-2.8,0-4.1c0.1-0.7,0.3-1.3,0.7-1.9
					c0.3-0.5,0.7-1,1.2-1.4c0.6-0.4,1.3-0.6,2-0.5c0.4,0,0.9,0.1,1.3,0.2c0.4,0.2,0.7,0.4,0.9,0.7c0.3,0.3,0.5,0.7,0.6,1.1
					c0.2,0.4,0.3,0.9,0.4,1.4l1.5-0.5c-0.1-0.6-0.3-1.2-0.6-1.8c-0.2-0.5-0.5-1-1-1.4c-0.4-0.4-0.8-0.7-1.4-0.9
					c-0.6-0.2-1.2-0.3-1.9-0.3c-1,0-1.9,0.2-2.7,0.7c-0.7,0.4-1.3,1.1-1.8,1.8c-0.5,0.8-0.8,1.6-1,2.5c-0.2,0.9-0.3,1.8-0.3,2.7
					c0,0.9,0.1,1.8,0.3,2.7c0.2,0.9,0.5,1.7,1,2.4c0.5,0.7,1.1,1.3,1.8,1.8c0.8,0.5,1.8,0.7,2.7,0.7c0.6,0,1.1-0.1,1.6-0.3
					c0.5-0.2,1-0.4,1.5-0.7v0.8h1.8v-2.1L271.8,144"/>
				<path class="st6" d="M275.7,130.4l1.7-2.7h-2.1l-1,2.7H275.7 M274.6,146h1.7v-14.7h-1.7V146"/>
				<path class="st6" d="M286.8,146h2l-4.8-14.7h-1.8l-4.4,14.7h1.9l1.3-4.4h4.6L286.8,146 M283.1,133.8
					c0.3,1,0.6,2.1,0.9,3.1l0.9,3.1h-3.5l0.9-3C282.7,135.9,283,134.9,283.1,133.8"/>
				<path class="st6" d="M290.1,148.8c0.3-0.1,0.5-0.3,0.7-0.6c0.2-0.2,0.3-0.4,0.5-0.7c0.1-0.2,0.2-0.5,0.2-0.8
					c0-0.3,0.1-0.5,0.1-0.8v-2h-1.8v2h0.8c0,0.4-0.1,0.7-0.2,1.1c-0.1,0.4-0.4,0.7-0.7,0.8L290.1,148.8"/>
				<path class="st6" d="M298.7,146h1.7v-14.7h-1.7V146"/>
				<path class="st6" d="M310.7,146h1.7v-14.7h-1.7v10.9l-5.8-10.9h-1.7V146h1.7v-11L310.7,146"/>
				<path class="st6" d="M322.5,146h1.7v-14.7h-1.7v10.9l-5.8-10.9H315V146h1.7v-11L322.5,146"/>
				<path class="st6" d="M331.9,146.2c0.6,0,1.2-0.1,1.8-0.3c0.5-0.2,1-0.5,1.4-0.9c0.4-0.4,0.8-0.8,1.1-1.3
					c0.3-0.5,0.5-1,0.7-1.6c0.2-0.6,0.3-1.1,0.4-1.7c0.1-0.6,0.1-1.1,0.1-1.7c0-0.9-0.1-1.7-0.3-2.6c-0.2-0.9-0.5-1.7-1-2.5
					c-0.4-0.7-1-1.4-1.7-1.9c-0.8-0.5-1.7-0.8-2.6-0.7c-0.6,0-1.3,0.1-1.9,0.3c-0.5,0.2-1,0.5-1.5,0.9c-0.4,0.4-0.7,0.9-1,1.4
					c-0.3,0.5-0.5,1.1-0.7,1.6c-0.2,0.6-0.3,1.2-0.4,1.8c-0.1,0.6-0.1,1.2-0.1,1.8c0,0.9,0.1,1.7,0.3,2.5c0.2,0.8,0.5,1.6,1,2.4
					c0.4,0.7,1,1.3,1.7,1.8C330.1,146,331,146.2,331.9,146.2 M331.9,132.7c0.7,0,1.3,0.2,1.8,0.6c0.5,0.4,0.9,0.9,1.1,1.5
					c0.3,0.6,0.5,1.3,0.6,1.9c0.2,1.3,0.2,2.7,0,4c-0.1,0.7-0.3,1.3-0.6,1.9c-0.3,0.6-0.7,1.1-1.2,1.4c-1.1,0.7-2.5,0.7-3.6,0
					c-0.5-0.4-0.9-0.8-1.2-1.4c-0.3-0.6-0.5-1.2-0.6-1.9c-0.1-0.6-0.2-1.3-0.2-1.9c0-0.4,0-0.8,0-1.2c0-0.4,0.1-0.9,0.2-1.3
					c0.1-0.4,0.2-0.8,0.3-1.2c0.1-0.4,0.3-0.7,0.6-1c0.3-0.4,0.7-0.7,1.2-1C330.8,132.9,331.3,132.7,331.9,132.7"/>
				<path class="st6" d="M344.4,146l4.6-14.7h-1.8l-3.1,10.6c-0.1,0.3-0.2,0.6-0.3,0.9l-0.2,0.9
					c-0.1-0.3-0.1-0.6-0.2-0.9s-0.2-0.6-0.2-0.9l-3-10.6h-1.9l4.5,14.7H344.4"/>
				<path class="st6" d="M358.1,146h2l-4.8-14.7h-1.8l-4.5,14.7h1.9l1.3-4.4h4.6L358.1,146 M354.4,133.8
					c0.3,1,0.6,2.1,0.9,3.1l0.9,3.1h-3.5l0.9-3C353.9,135.9,354.2,134.9,354.4,133.8"/>
				<path class="st6" d="M366.3,146.2c0.7,0,1.3-0.1,1.9-0.4c0.5-0.3,1-0.7,1.4-1.1c0.4-0.5,0.7-1,1-1.6
					c0.3-0.6,0.4-1.2,0.6-1.9l-1.7-0.5c-0.1,0.5-0.2,1-0.4,1.4c-0.2,0.4-0.4,0.9-0.6,1.2c-0.3,0.3-0.6,0.6-1,0.8
					c-0.4,0.2-0.9,0.3-1.3,0.3c-0.7,0-1.3-0.2-1.8-0.6c-0.5-0.4-0.8-0.9-1.1-1.5c-0.3-0.6-0.4-1.3-0.5-2c-0.1-0.7-0.1-1.3-0.1-2
					c0-0.7,0-1.3,0.1-2c0.1-0.7,0.3-1.3,0.6-1.9c0.2-0.6,0.6-1,1.1-1.4c0.5-0.4,1.2-0.6,1.8-0.6c0.4,0,0.8,0.1,1.1,0.2
					c0.3,0.1,0.6,0.4,0.8,0.6c0.2,0.3,0.4,0.6,0.6,0.9c0.2,0.4,0.3,0.8,0.4,1.2l1.7-0.5c-0.2-0.6-0.4-1.1-0.6-1.7
					c-0.3-0.5-0.6-0.9-1-1.3c-0.4-0.4-0.8-0.7-1.3-0.9c-0.5-0.2-1.1-0.3-1.7-0.3c-0.9,0-1.8,0.2-2.6,0.7c-0.7,0.5-1.3,1.1-1.7,1.8
					c-0.4,0.8-0.7,1.6-0.9,2.4c-0.2,0.8-0.3,1.7-0.3,2.5c0,0.9,0.1,1.8,0.2,2.7c0.2,0.9,0.4,1.7,0.9,2.5c0.4,0.7,1,1.4,1.7,1.9
					c0.8,0.5,1.7,0.8,2.7,0.7"/>
				<path class="st6" d="M373.4,146h1.7v-14.7h-1.7V146"/>
				<path class="st6" d="M383.4,130.4l1.7-2.7H383l-1,2.7H383.4 M383,146.2c0.6,0,1.2-0.1,1.8-0.3
					c0.5-0.2,1-0.5,1.4-0.9c0.4-0.4,0.8-0.8,1.1-1.3c0.3-0.5,0.5-1,0.7-1.6c0.2-0.6,0.3-1.1,0.4-1.7c0.1-0.6,0.1-1.1,0.1-1.7
					c0-0.9-0.1-1.7-0.3-2.6c-0.2-0.9-0.5-1.7-1-2.5c-0.4-0.7-1-1.4-1.7-1.9c-0.8-0.5-1.7-0.8-2.6-0.7c-0.6,0-1.3,0.1-1.9,0.3
					c-0.5,0.2-1,0.5-1.5,0.9c-0.4,0.4-0.7,0.9-1,1.4c-0.3,0.5-0.5,1.1-0.7,1.6c-0.2,0.6-0.3,1.2-0.4,1.8c-0.1,0.6-0.1,1.2-0.1,1.8
					c0,0.9,0.1,1.7,0.3,2.5c0.2,0.8,0.5,1.6,1,2.4c0.4,0.7,1,1.3,1.7,1.8C381.3,146,382.1,146.2,383,146.2 M383,132.7
					c0.7,0,1.3,0.2,1.8,0.6c0.5,0.4,0.9,0.9,1.1,1.5c0.3,0.6,0.5,1.3,0.6,1.9c0.2,1.3,0.2,2.7,0,4c-0.1,0.7-0.3,1.3-0.6,1.9
					c-0.3,0.6-0.7,1.1-1.2,1.4c-1.1,0.7-2.5,0.7-3.6,0c-0.5-0.4-0.9-0.8-1.2-1.4c-0.3-0.6-0.5-1.2-0.6-1.9c-0.1-0.6-0.2-1.3-0.2-1.9
					c0-0.4,0-0.8,0-1.2c0-0.4,0.1-0.9,0.2-1.3c0.1-0.4,0.2-0.8,0.3-1.2c0.1-0.4,0.3-0.7,0.6-1c0.3-0.4,0.7-0.7,1.2-1
					C381.9,132.9,382.5,132.7,383,132.7"/>
				<path class="st6" d="M397.9,146h1.7v-14.7H398v10.9l-5.8-10.9h-1.7V146h1.7v-11L397.9,146"/>
				<path class="st6" d="M411.3,139.8l4.6-8.5h-2c-0.6,1.1-1.2,2.2-1.8,3.3s-1.1,2.2-1.6,3.3
					c-0.5-1.1-1.1-2.2-1.6-3.3s-1.2-2.2-1.8-3.3H405l4.5,8.5v6.3h1.8L411.3,139.8"/>
				<path class="st6" d="M426.3,146.2c0.7,0,1.3-0.1,1.9-0.4c0.5-0.3,1-0.7,1.4-1.1c0.4-0.5,0.7-1,1-1.6
					c0.3-0.6,0.4-1.2,0.6-1.9l-1.7-0.5c-0.1,0.5-0.2,1-0.4,1.4c-0.2,0.4-0.4,0.9-0.6,1.2c-0.3,0.3-0.6,0.6-1,0.8
					c-0.4,0.2-0.9,0.3-1.3,0.3c-0.7,0-1.3-0.2-1.8-0.6c-0.5-0.4-0.8-0.9-1.1-1.5c-0.3-0.6-0.4-1.3-0.5-2c-0.1-0.7-0.1-1.3-0.1-2
					c0-0.7,0-1.3,0.1-2c0.1-0.7,0.3-1.3,0.6-1.9c0.2-0.6,0.6-1,1.1-1.4c0.5-0.4,1.2-0.6,1.8-0.6c0.4,0,0.8,0.1,1.1,0.2
					c0.3,0.1,0.6,0.4,0.8,0.6c0.2,0.3,0.4,0.6,0.6,0.9c0.2,0.4,0.3,0.8,0.4,1.2l1.7-0.5c-0.2-0.6-0.4-1.1-0.6-1.7
					c-0.3-0.5-0.6-0.9-1-1.3c-0.4-0.4-0.8-0.7-1.3-0.9c-0.5-0.2-1.1-0.3-1.7-0.3c-0.9,0-1.8,0.2-2.6,0.7c-0.7,0.5-1.3,1.1-1.7,1.8
					c-0.4,0.8-0.7,1.6-0.9,2.4c-0.2,0.8-0.3,1.7-0.3,2.5c0,0.9,0.1,1.8,0.2,2.7c0.2,0.9,0.4,1.7,0.9,2.5c0.4,0.7,1,1.4,1.7,1.9
					c0.8,0.5,1.7,0.8,2.7,0.7"/>
				<path class="st6" d="M438,146.2c0.6,0,1.2-0.1,1.8-0.3c0.5-0.2,1-0.5,1.4-0.9c0.4-0.4,0.8-0.8,1.1-1.3
					c0.3-0.5,0.5-1,0.7-1.6c0.2-0.6,0.3-1.1,0.4-1.7c0.1-0.6,0.1-1.1,0.1-1.7c0-0.9-0.1-1.7-0.3-2.6c-0.2-0.9-0.5-1.7-1-2.5
					c-0.4-0.7-1-1.4-1.7-1.9c-0.8-0.5-1.7-0.8-2.6-0.7c-0.6,0-1.3,0.1-1.9,0.3c-0.5,0.2-1,0.5-1.5,0.9c-0.4,0.4-0.7,0.9-1,1.4
					c-0.3,0.5-0.5,1.1-0.7,1.6c-0.2,0.6-0.3,1.2-0.4,1.8c-0.1,0.6-0.1,1.2-0.1,1.8c0,0.9,0.1,1.7,0.3,2.5c0.2,0.8,0.5,1.6,1,2.4
					c0.4,0.7,1,1.3,1.7,1.8C436.3,146,437.1,146.2,438,146.2 M438,132.7c0.7,0,1.3,0.2,1.8,0.6c0.5,0.4,0.9,0.9,1.1,1.5
					c0.3,0.6,0.5,1.3,0.6,1.9c0.2,1.3,0.2,2.7,0,4c-0.1,0.7-0.3,1.3-0.6,1.9c-0.3,0.6-0.7,1.1-1.2,1.4c-1.1,0.7-2.5,0.7-3.6,0
					c-0.5-0.4-0.9-0.8-1.2-1.4c-0.3-0.6-0.5-1.2-0.6-1.9c-0.1-0.6-0.2-1.3-0.2-1.9c0-0.4,0-0.8,0-1.2c0-0.4,0.1-0.9,0.2-1.3
					c0.1-0.4,0.2-0.8,0.3-1.2c0.1-0.4,0.3-0.7,0.6-1c0.3-0.4,0.7-0.7,1.2-1C437,132.9,437.5,132.7,438,132.7"/>
				<path class="st6" d="M453.2,146h1.7v-14.7h-1.7v10.9l-5.8-10.9h-1.7V146h1.7v-11L453.2,146"/>
				<path class="st6" d="M462.5,146.2c0.6,0,1.2-0.1,1.8-0.3c0.5-0.2,1-0.5,1.4-0.9c0.4-0.4,0.8-0.8,1.1-1.3
					c0.3-0.5,0.5-1,0.7-1.6c0.2-0.6,0.3-1.1,0.4-1.7c0.1-0.6,0.1-1.1,0.1-1.7c0-0.9-0.1-1.7-0.3-2.6c-0.2-0.9-0.5-1.7-1-2.5
					c-0.4-0.7-1-1.4-1.7-1.9c-0.8-0.5-1.7-0.8-2.6-0.7c-0.6,0-1.3,0.1-1.9,0.3c-0.5,0.2-1,0.5-1.5,0.9c-0.4,0.4-0.7,0.9-1,1.4
					c-0.3,0.5-0.5,1.1-0.7,1.6c-0.2,0.6-0.3,1.1-0.4,1.7c-0.1,0.6-0.1,1.2-0.1,1.8c0,0.9,0.1,1.7,0.3,2.5c0.2,0.8,0.5,1.6,1,2.4
					c0.4,0.7,1,1.3,1.7,1.8C460.7,145.9,461.5,146.2,462.5,146.2 M462.4,132.6c0.7,0,1.3,0.2,1.8,0.6c0.5,0.4,0.9,0.9,1.1,1.5
					c0.3,0.6,0.5,1.3,0.6,1.9c0.2,1.3,0.2,2.7,0,4c-0.1,0.7-0.3,1.3-0.6,1.9c-0.3,0.6-0.7,1.1-1.2,1.4c-1.1,0.7-2.5,0.7-3.6,0
					c-0.5-0.4-0.9-0.8-1.2-1.4c-0.3-0.6-0.5-1.2-0.6-1.9c-0.1-0.6-0.2-1.3-0.2-1.9c0-0.4,0-0.8,0-1.2c0-0.4,0.1-0.9,0.2-1.3
					c0.1-0.4,0.2-0.8,0.3-1.2c0.1-0.4,0.3-0.7,0.6-1c0.3-0.4,0.7-0.7,1.2-1C461.4,132.8,461.9,132.7,462.4,132.6"/>
				<path class="st6" d="M475.2,146.2c0.7,0,1.3-0.1,1.9-0.4c0.5-0.3,1-0.7,1.4-1.1c0.4-0.5,0.7-1,1-1.6
					c0.3-0.6,0.4-1.2,0.6-1.9l-1.7-0.5c-0.1,0.5-0.2,1-0.4,1.4c-0.2,0.4-0.4,0.9-0.6,1.2c-0.3,0.3-0.6,0.6-1,0.8
					c-0.4,0.2-0.9,0.3-1.3,0.3c-0.7,0-1.3-0.2-1.8-0.6c-0.5-0.4-0.8-0.9-1.1-1.5c-0.3-0.6-0.4-1.3-0.5-2c-0.1-0.7-0.1-1.3-0.1-2
					c0-0.7,0-1.3,0.1-2c0.1-0.7,0.3-1.3,0.6-1.9c0.2-0.6,0.6-1,1.1-1.4c0.5-0.4,1.2-0.6,1.8-0.6c0.4,0,0.8,0.1,1.1,0.2
					c0.3,0.1,0.6,0.4,0.8,0.6c0.2,0.3,0.4,0.6,0.6,0.9c0.2,0.4,0.3,0.8,0.4,1.2l1.7-0.5c-0.2-0.6-0.4-1.1-0.6-1.7
					c-0.3-0.5-0.6-0.9-1-1.3c-0.4-0.4-0.8-0.7-1.3-0.9c-0.5-0.2-1.1-0.3-1.7-0.3c-0.9,0-1.8,0.2-2.6,0.7c-0.7,0.5-1.3,1.1-1.7,1.8
					c-0.4,0.8-0.7,1.7-0.9,2.6c-0.2,0.8-0.3,1.7-0.3,2.5c0,0.9,0.1,1.8,0.2,2.7c0.2,0.9,0.4,1.7,0.9,2.5c0.4,0.7,1,1.4,1.7,1.9
					C473.3,146,474.2,146.3,475.2,146.2"/>
				<path class="st6" d="M482.1,146h1.7v-14.7h-1.7V146"/>
				<path class="st6" d="M495.7,146h1.8v-14.7h-2.2c-0.2,0.6-0.3,1.3-0.5,2l-0.6,2.2l-0.6,2.3l-0.6,2.1l-0.5,1.8
					c-0.1,0.5-0.3,0.9-0.4,1.3c-0.1-0.3-0.2-0.7-0.3-1.3s-0.3-1.1-0.5-1.8l-0.6-2.1l-0.6-2.3c-0.2-0.8-0.4-1.5-0.6-2.2
					s-0.4-1.4-0.5-2h-2.5V146h1.7v-11.2l3,11.2h1.6l3-10.8L495.7,146"/>
				<path class="st6" d="M500.4,146h1.7v-14.7h-1.7V146"/>
				<path class="st6" d="M504.8,146h8.7v-1.7h-7v-5.1h5.8v-1.7h-5.8V133h6.7v-1.7h-8.5L504.8,146"/>
				<path class="st6" d="M523,146h1.7v-14.7H523v10.9l-5.8-10.9h-1.7V146h1.7v-11L523,146"/>
				<path class="st6" d="M531.8,132.9h3.8v-1.7h-9.2v1.7h3.7v13h1.7V132.9"/>
				<path class="st6" d="M542.5,146.2c0.6,0,1.2-0.1,1.8-0.3c0.5-0.2,1-0.5,1.4-0.9c0.4-0.4,0.8-0.8,1.1-1.3
					c0.3-0.5,0.5-1,0.7-1.6c0.2-0.6,0.3-1.1,0.4-1.7c0.1-0.6,0.1-1.1,0.1-1.7c0-0.9-0.1-1.7-0.3-2.6c-0.2-0.9-0.5-1.7-1-2.5
					c-0.4-0.7-1-1.4-1.7-1.9c-0.8-0.5-1.7-0.8-2.6-0.7c-0.6,0-1.3,0.1-1.9,0.3c-0.5,0.2-1,0.5-1.5,0.9c-0.4,0.4-0.7,0.9-1,1.4
					c-0.3,0.5-0.5,1.1-0.7,1.6c-0.2,0.6-0.3,1.2-0.4,1.8c-0.1,0.6-0.1,1.2-0.1,1.8c0,0.9,0.1,1.7,0.3,2.5c0.2,0.8,0.5,1.6,1,2.4
					c0.4,0.7,1,1.3,1.7,1.8C540.8,146,541.6,146.2,542.5,146.2 M542.5,132.7c0.7,0,1.3,0.2,1.8,0.6c0.5,0.4,0.9,0.9,1.2,1.5
					c0.3,0.6,0.5,1.3,0.6,1.9c0.2,1.3,0.2,2.7,0,4c-0.1,0.7-0.3,1.3-0.6,1.9c-0.3,0.6-0.7,1.1-1.2,1.4c-1.1,0.7-2.5,0.7-3.6,0
					c-0.5-0.4-0.9-0.8-1.2-1.4c-0.3-0.6-0.5-1.2-0.6-1.9c-0.1-0.6-0.2-1.3-0.2-1.9c0-0.4,0-0.8,0-1.2c0-0.4,0.1-0.9,0.2-1.3
					c0.1-0.4,0.2-0.8,0.3-1.2c0.1-0.4,0.3-0.7,0.6-1c0.3-0.4,0.7-0.7,1.2-1C541.4,132.9,542,132.7,542.5,132.7"/>
			</g>
			<g>
				<path class="st6" d="M157.6,112.5h5.2v-1.4h-6.7v12.5h1.5v-5.7h4.5v-1.4h-4.5V112.5"/>
				<path class="st6" d="M164.3,123.6h7.4v-1.4h-5.9v-4.3h4.9v-1.4h-4.9v-3.9h5.7v-1.4h-7.2V123.6"/>
				<path class="st6" d="M179.5,122.8c0.4-0.3,0.7-0.7,0.9-1.1c0.2-0.5,0.4-0.9,0.6-1.4c0.1-0.5,0.2-1,0.3-1.5
					c0.1-0.5,0.1-0.9,0.1-1.4c0-0.6,0-1.2-0.1-1.7c-0.1-0.6-0.2-1.2-0.5-1.8c-0.2-0.6-0.5-1.1-0.9-1.5c-0.4-0.5-0.9-0.8-1.5-1
					c-0.3-0.1-0.6-0.1-0.9-0.2h-0.9h-3.4v12.5h3.6c0.5,0,1-0.1,1.4-0.2C178.7,123.3,179.2,123,179.5,122.8 M178.2,112.8
					c0.4,0.2,0.6,0.5,0.9,0.8c0.2,0.3,0.4,0.7,0.5,1.1c0.1,0.4,0.2,0.8,0.2,1.3c0,0.4,0.1,0.8,0.1,1.2c0,0.4,0,0.8-0.1,1.3
					c0,0.5-0.1,0.9-0.3,1.4c-0.1,0.4-0.3,0.8-0.6,1.2c-0.2,0.3-0.5,0.6-0.9,0.8c-0.2,0.1-0.5,0.2-0.7,0.2c-0.3,0-0.5,0-0.8,0h-1.9
					v-9.6h1.9c0.3,0,0.6,0,0.8,0.1C177.7,112.6,178,112.6,178.2,112.8"/>
				<path class="st6" d="M182.9,123.6h7.4v-1.4h-5.9v-4.3h4.9v-1.4h-4.9v-3.9h5.7v-1.4h-7.2L182.9,123.6"/>
				<path class="st6" d="M198.7,123.6h1.8l-1.8-3.5c-0.2-0.4-0.4-0.8-0.7-1.2c-0.3-0.4-0.6-0.7-1-1
					c0.8-0.1,1.4-0.5,1.9-1.1c0.5-0.6,0.7-1.4,0.7-2.2c0-0.7-0.1-1.3-0.4-1.9c-0.1-0.3-0.3-0.6-0.6-0.8c-0.2-0.2-0.5-0.4-0.7-0.5
					c-0.3-0.1-0.6-0.2-0.8-0.2c-0.3,0-0.7-0.1-1-0.1h-4.4v12.5h1.5V118h1.2c0.2,0,0.5,0,0.7,0.1c0.2,0.1,0.4,0.2,0.6,0.3
					c0.2,0.2,0.3,0.4,0.5,0.6c0.2,0.3,0.4,0.6,0.6,0.9s0.4,0.7,0.6,1.1c0.2,0.4,0.4,0.8,0.6,1.1c0.2,0.4,0.3,0.7,0.5,0.9
					L198.7,123.6 M196.1,112.4c0.5,0,1.1,0.2,1.5,0.6c0.4,0.4,0.5,1,0.5,1.5c0.1,0.6-0.2,1.2-0.6,1.6c-0.5,0.3-1.1,0.5-1.7,0.5h-2.6
					v-4.2L196.1,112.4"/>
				<path class="st6" d="M209.4,123.6h1.7l-4-12.5h-1.5l-3.8,12.5h1.6l1.1-3.7h3.9L209.4,123.6 M206.3,113.2
					c0.2,0.9,0.5,1.8,0.7,2.6l0.8,2.6h-3l0.8-2.6C205.9,115,206.1,114.1,206.3,113.2"/>
				<path class="st6" d="M216.1,123.8c0.6,0,1.1-0.1,1.6-0.3c0.5-0.2,0.9-0.6,1.2-0.9c0.3-0.4,0.6-0.8,0.8-1.3
					c0.2-0.5,0.4-1.1,0.5-1.6l-1.4-0.5c-0.1,0.4-0.2,0.8-0.3,1.2c-0.1,0.4-0.3,0.7-0.6,1c-0.2,0.3-0.5,0.5-0.8,0.7
					c-0.3,0.2-0.7,0.3-1.1,0.3c-0.6,0-1.1-0.2-1.6-0.5c-0.4-0.4-0.7-0.8-0.9-1.3c-0.2-0.5-0.4-1.1-0.4-1.7c-0.1-0.6-0.1-1.1-0.1-1.7
					c0-0.6,0-1.1,0.1-1.7c0.1-0.6,0.2-1.1,0.5-1.6c0.2-0.5,0.5-0.9,0.9-1.2c0.4-0.3,1-0.5,1.5-0.5c0.3,0,0.6,0.1,0.9,0.2
					c0.3,0.1,0.5,0.3,0.7,0.5c0.2,0.2,0.4,0.5,0.5,0.8c0.1,0.3,0.3,0.7,0.3,1l1.4-0.4c-0.1-0.5-0.3-1-0.6-1.4
					c-0.2-0.4-0.5-0.8-0.8-1.1c-0.3-0.3-0.7-0.6-1.1-0.7c-0.5-0.2-0.9-0.3-1.4-0.3c-0.8,0-1.5,0.2-2.2,0.6c-0.6,0.4-1.1,0.9-1.4,1.5
					c-0.4,0.6-0.6,1.3-0.8,2.1c-0.1,0.7-0.2,1.4-0.2,2.2c0,0.8,0.1,1.5,0.2,2.3c0.1,0.7,0.4,1.4,0.7,2.1c0.3,0.6,0.8,1.2,1.4,1.6
					C214.5,123.6,215.3,123.8,216.1,123.8"/>
				<path class="st6" d="M221.7,123.6h1.5v-12.5h-1.5V123.6"/>
				<path class="st6" d="M229.8,110.3l1.4-2.3h-1.8l-0.9,2.3H229.8 M229.4,123.8c0.5,0,1.1-0.1,1.6-0.3
					c0.4-0.2,0.9-0.4,1.2-0.8c0.4-0.3,0.7-0.7,0.9-1.1c0.3-0.4,0.5-0.9,0.6-1.3c0.2-0.5,0.3-1,0.3-1.5c0.1-0.5,0.1-1,0.1-1.4
					c0-0.7-0.1-1.5-0.3-2.2c-0.1-0.7-0.4-1.5-0.8-2.1c-0.4-0.6-0.9-1.2-1.4-1.6c-0.6-0.4-1.4-0.7-2.2-0.6c-0.6,0-1.1,0.1-1.6,0.3
					c-0.5,0.2-0.9,0.5-1.2,0.8c-0.4,0.3-0.7,0.7-0.9,1.2c-0.2,0.4-0.4,0.9-0.6,1.4c-0.1,0.5-0.3,1-0.3,1.5c-0.1,0.5-0.1,1-0.1,1.5
					c0,0.7,0.1,1.4,0.3,2.2c0.2,0.7,0.5,1.4,0.8,2c0.4,0.6,0.9,1.1,1.4,1.5C227.9,123.6,228.7,123.8,229.4,123.8 M229.4,112.3
					c0.6,0,1.1,0.2,1.5,0.5c0.4,0.3,0.8,0.8,1,1.3c0.3,0.5,0.4,1.1,0.5,1.6c0.1,0.6,0.1,1.1,0.1,1.7c0,0.6-0.1,1.1-0.1,1.7
					c-0.1,0.6-0.3,1.1-0.5,1.6c-0.2,0.5-0.6,0.9-1,1.2c-0.9,0.6-2.1,0.6-3.1,0c-0.4-0.3-0.8-0.7-1-1.2c-0.3-0.5-0.4-1-0.6-1.6
					c-0.1-0.5-0.1-1.1-0.1-1.6c0-0.3,0-0.7,0-1c0-0.4,0.1-0.7,0.1-1.1c0.1-0.3,0.2-0.7,0.3-1c0.1-0.3,0.3-0.6,0.5-0.9
					c0.3-0.3,0.6-0.6,1-0.9C228.6,112.4,229,112.3,229.4,112.3"/>
				<path class="st6" d="M241.8,123.6h1.5v-12.5h-1.4v9.3l-4.9-9.3h-1.5v12.5h1.4v-9.3L241.8,123.6"/>
				<path class="st6" d="M255.5,123.6h1.7l-4-12.5h-1.5l-3.8,12.5h1.6l1.1-3.7h3.9L255.5,123.6 M252.5,113.2
					c0.2,0.9,0.5,1.8,0.7,2.6l0.8,2.6h-3l0.8-2.6C252,115,252.2,114.1,252.5,113.2"/>
				<path class="st6" d="M265.6,123.6h1.8l-1.8-3.5c-0.2-0.4-0.4-0.8-0.7-1.2c-0.3-0.4-0.6-0.7-1-1
					c0.8-0.1,1.4-0.5,1.9-1.1c0.5-0.6,0.7-1.4,0.7-2.2c0-0.7-0.1-1.3-0.4-1.9c-0.1-0.3-0.3-0.6-0.6-0.8c-0.2-0.2-0.5-0.4-0.7-0.5
					c-0.3-0.1-0.6-0.2-0.8-0.2c-0.3,0-0.7-0.1-1-0.1h-4.4v12.5h1.5V118h1.2c0.2,0,0.5,0,0.7,0.1c0.2,0.1,0.4,0.2,0.6,0.3
					c0.2,0.2,0.3,0.4,0.5,0.6c0.2,0.3,0.4,0.6,0.6,0.9s0.4,0.7,0.6,1.1c0.2,0.4,0.4,0.8,0.6,1.1c0.2,0.4,0.3,0.7,0.5,0.9
					L265.6,123.6 M263.1,112.4c0.5,0,1.1,0.2,1.5,0.6c0.4,0.4,0.5,1,0.5,1.5c0.1,0.6-0.2,1.2-0.6,1.6c-0.5,0.3-1.1,0.5-1.7,0.5h-2.6
					v-4.2L263.1,112.4"/>
				<path class="st6" d="M277,121.9h0.1v-4.7h-4.3v1.4h2.9v2.4c-0.4,0.4-0.8,0.7-1.3,0.9c-0.5,0.2-1,0.3-1.5,0.3
					c-0.6,0-1.2-0.1-1.7-0.4c-0.4-0.3-0.8-0.7-1.1-1.2c-0.3-0.5-0.5-1-0.6-1.6c-0.2-1.2-0.2-2.4,0-3.5c0.1-0.6,0.3-1.1,0.6-1.6
					c0.2-0.5,0.6-0.9,1-1.2c0.5-0.3,1.1-0.5,1.7-0.5c0.4,0,0.7,0.1,1.1,0.2c0.3,0.1,0.6,0.3,0.8,0.6c0.2,0.3,0.4,0.6,0.5,0.9
					c0.1,0.4,0.3,0.8,0.4,1.1l1.3-0.4c-0.1-0.5-0.3-1.1-0.5-1.6c-0.2-0.5-0.5-0.9-0.8-1.2c-0.3-0.3-0.7-0.6-1.2-0.8
					c-0.5-0.2-1.1-0.3-1.6-0.3c-0.8,0-1.6,0.2-2.3,0.6c-0.6,0.4-1.1,0.9-1.5,1.5c-0.4,0.6-0.7,1.4-0.8,2.1c-0.2,0.8-0.2,1.5-0.2,2.3
					c0,0.8,0.1,1.5,0.3,2.3c0.2,0.7,0.5,1.4,0.9,2c0.4,0.6,0.9,1.1,1.5,1.5c0.7,0.4,1.5,0.6,2.3,0.6c0.5,0,0.9-0.1,1.4-0.3
					c0.4-0.2,0.9-0.4,1.3-0.6v0.7h1.4v-1.8L277,121.9"/>
				<path class="st6" d="M278.7,123.6h7.4v-1.4h-5.9v-4.3h4.9v-1.4h-4.9v-3.9h5.7v-1.4h-7.2L278.7,123.6"/>
				<path class="st6" d="M293.9,123.6h1.5v-12.5H294v9.3l-5-9.3h-1.5v12.5h1.5v-9.3L293.9,123.6"/>
				<path class="st6" d="M301.2,112.5h3.2v-1.4h-7.8v1.4h3.2v11.1h1.5V112.5"/>
				<path class="st6" d="M305.7,123.6h1.5v-12.5h-1.5V123.6"/>
				<path class="st6" d="M315.4,123.6h1.5v-12.5h-1.4v9.3l-4.9-9.3h-1.5v12.5h1.4v-9.3L315.4,123.6"/>
				<path class="st6" d="M326.1,123.6h1.7l-4-12.5h-1.5l-3.8,12.5h1.5l1.1-3.7h3.9L326.1,123.6 M322.9,113.2
					c0.2,0.9,0.5,1.8,0.7,2.6l0.8,2.6h-3l0.8-2.6C322.5,115,322.7,114.1,322.9,113.2"/>
				<path class="st6" d="M338.6,122.8c0.4-0.3,0.7-0.7,0.9-1.1c0.2-0.5,0.4-0.9,0.6-1.4c0.1-0.5,0.2-1,0.3-1.5
					c0.1-0.5,0.1-0.9,0.1-1.4c0-0.6,0-1.2-0.1-1.7c-0.1-0.6-0.2-1.2-0.5-1.8c-0.2-0.6-0.5-1.1-0.9-1.5c-0.4-0.5-0.9-0.8-1.5-1
					c-0.3-0.1-0.6-0.1-0.9-0.2h-0.9h-3.4v12.5h3.6c0.5,0,1-0.1,1.4-0.2C337.8,123.3,338.2,123,338.6,122.8 M337.3,112.8
					c0.4,0.2,0.6,0.5,0.9,0.8c0.2,0.3,0.4,0.7,0.5,1.1c0.1,0.4,0.2,0.8,0.2,1.3c0,0.4,0.1,0.8,0.1,1.2c0,0.4,0,0.8-0.1,1.3
					c0,0.5-0.1,0.9-0.3,1.4c-0.1,0.4-0.3,0.8-0.5,1.2c-0.2,0.3-0.5,0.6-0.9,0.8c-0.2,0.1-0.5,0.2-0.7,0.2c-0.3,0-0.5,0-0.8,0h-2
					v-9.6h1.9c0.3,0,0.6,0,0.8,0.1C336.8,112.6,337,112.6,337.3,112.8"/>
				<path class="st6" d="M341.9,123.6h7.4v-1.4h-5.9v-4.3h4.9v-1.4h-4.9v-3.9h5.7v-1.4h-7.2V123.6"/>
				<path class="st6" d="M358.9,123.8c0.6,0,1.1-0.1,1.6-0.3c0.5-0.2,0.9-0.6,1.2-0.9c0.3-0.4,0.6-0.8,0.8-1.3
					c0.2-0.5,0.4-1.1,0.5-1.6l-1.4-0.5c-0.1,0.4-0.2,0.8-0.3,1.2c-0.1,0.4-0.3,0.7-0.5,1c-0.2,0.3-0.5,0.5-0.8,0.7
					c-0.3,0.2-0.7,0.3-1.1,0.3c-0.6,0-1.1-0.2-1.5-0.5c-0.4-0.4-0.7-0.8-0.9-1.3c-0.2-0.5-0.4-1.1-0.4-1.7c-0.1-0.6-0.1-1.1-0.1-1.7
					c0-0.6,0-1.1,0.1-1.7c0.1-0.6,0.2-1.1,0.5-1.6c0.2-0.5,0.5-0.9,0.9-1.2c0.4-0.3,1-0.5,1.5-0.5c0.3,0,0.6,0.1,0.9,0.2
					c0.3,0.1,0.5,0.3,0.7,0.5c0.2,0.2,0.4,0.5,0.5,0.8c0.1,0.3,0.3,0.7,0.3,1l1.5-0.4c-0.1-0.5-0.3-1-0.5-1.4
					c-0.2-0.4-0.5-0.8-0.8-1.1c-0.3-0.3-0.7-0.6-1.1-0.7c-0.5-0.2-0.9-0.3-1.4-0.3c-0.8,0-1.5,0.2-2.2,0.6c-0.6,0.4-1.1,0.9-1.4,1.5
					c-0.4,0.6-0.6,1.3-0.8,2.1c-0.1,0.7-0.2,1.4-0.2,2.2c0,0.8,0.1,1.5,0.2,2.3c0.1,0.7,0.4,1.4,0.7,2.1c0.3,0.6,0.8,1.2,1.4,1.6
					C357.3,123.6,358.1,123.8,358.9,123.8"/>
				<path class="st6" d="M368.5,123.8c0.5,0,1.1-0.1,1.5-0.3c0.4-0.2,0.9-0.4,1.2-0.8c0.4-0.3,0.7-0.7,0.9-1.1
					c0.3-0.4,0.5-0.9,0.6-1.3c0.2-0.5,0.3-1,0.3-1.5c0.1-0.5,0.1-1,0.1-1.4c0-0.7-0.1-1.5-0.3-2.2c-0.1-0.7-0.4-1.5-0.8-2.1
					c-0.4-0.6-0.9-1.2-1.5-1.6c-0.6-0.4-1.4-0.7-2.2-0.6c-0.6,0-1.1,0.1-1.6,0.3c-0.5,0.2-0.9,0.5-1.2,0.8c-0.4,0.3-0.7,0.7-0.9,1.2
					c-0.2,0.4-0.4,0.9-0.6,1.4c-0.1,0.5-0.3,1-0.3,1.5c-0.1,0.5-0.1,1-0.1,1.5c0,0.7,0.1,1.4,0.3,2.2c0.2,0.7,0.5,1.4,0.8,2
					c0.4,0.6,0.9,1.1,1.5,1.5C367,123.6,367.8,123.8,368.5,123.8 M368.5,112.3c0.6,0,1.1,0.2,1.5,0.5c0.4,0.3,0.8,0.8,1,1.3
					c0.3,0.5,0.4,1.1,0.5,1.6c0.1,0.6,0.1,1.1,0.1,1.7c0,0.6-0.1,1.1-0.1,1.7c-0.1,0.6-0.3,1.1-0.5,1.6c-0.2,0.5-0.6,0.9-1,1.2
					c-0.9,0.6-2.1,0.6-3.1,0c-0.4-0.3-0.8-0.7-1-1.2c-0.3-0.5-0.4-1-0.5-1.6c-0.1-0.5-0.1-1.1-0.1-1.6c0-0.3,0-0.7,0-1
					c0-0.4,0.1-0.7,0.1-1.1c0.1-0.3,0.2-0.7,0.3-1c0.1-0.3,0.3-0.6,0.5-0.9c0.3-0.3,0.6-0.6,1-0.9
					C367.7,112.4,368.1,112.3,368.5,112.3"/>
				<path class="st6" d="M379.5,123.8c0.5,0,1.1-0.1,1.5-0.3c0.4-0.2,0.9-0.4,1.2-0.8c0.4-0.3,0.7-0.7,0.9-1.1
					c0.3-0.4,0.5-0.9,0.6-1.3c0.2-0.5,0.3-1,0.3-1.5c0.1-0.5,0.1-1,0.1-1.4c0-0.7-0.1-1.5-0.3-2.2c-0.1-0.7-0.4-1.5-0.8-2.1
					c-0.4-0.6-0.9-1.2-1.5-1.6c-0.6-0.4-1.4-0.7-2.2-0.6c-0.6,0-1.1,0.1-1.6,0.3c-0.5,0.2-0.9,0.5-1.2,0.8c-0.4,0.3-0.7,0.7-0.9,1.2
					c-0.2,0.4-0.4,0.9-0.6,1.4c-0.1,0.5-0.3,1-0.3,1.5c-0.1,0.5-0.1,1-0.1,1.5c0,0.7,0.1,1.4,0.3,2.2c0.2,0.7,0.5,1.4,0.8,2
					c0.4,0.6,0.9,1.1,1.5,1.5C377.9,123.6,378.7,123.8,379.5,123.8 M379.5,112.3c0.6,0,1.1,0.2,1.5,0.5c0.4,0.3,0.8,0.8,1,1.3
					c0.3,0.5,0.4,1.1,0.5,1.6c0.1,0.6,0.1,1.1,0.1,1.7c0,0.6-0.1,1.1-0.1,1.7c-0.1,0.6-0.3,1.1-0.5,1.6c-0.2,0.5-0.6,0.9-1,1.2
					c-0.9,0.6-2.1,0.6-3.1,0c-0.4-0.3-0.8-0.7-1-1.2c-0.3-0.5-0.4-1-0.5-1.6c-0.1-0.5-0.1-1.1-0.1-1.6c0-0.3,0-0.7,0-1
					c0-0.4,0.1-0.7,0.1-1.1c0.1-0.3,0.2-0.7,0.3-1c0.1-0.3,0.3-0.6,0.5-0.9c0.3-0.3,0.6-0.6,1-0.9
					C378.6,112.4,379,112.3,379.5,112.3"/>
				<path class="st6" d="M392.3,117.4c0.3-0.4,0.5-0.8,0.6-1.3c0.1-0.5,0.2-0.9,0.2-1.4c0-0.6-0.1-1.2-0.3-1.7
					c-0.1-0.4-0.4-0.7-0.6-1c-0.2-0.3-0.5-0.5-0.8-0.6c-0.3-0.1-0.7-0.2-1-0.3c-0.4,0-0.8-0.1-1.1-0.1h-3.7v12.5h1.5v-5.1h1.9
					c0.3,0,0.5,0,0.9,0c0.3,0,0.6-0.1,0.9-0.2c0.3-0.1,0.6-0.2,0.9-0.3C391.9,117.9,392.1,117.7,392.3,117.4 M390.6,112.7
					c0.2,0.1,0.4,0.2,0.5,0.3c0.1,0.1,0.2,0.3,0.3,0.5c0.1,0.2,0.2,0.4,0.2,0.6c0,0.2,0,0.4,0,0.6c0,0.7-0.2,1.3-0.7,1.7
					c-0.5,0.4-1.2,0.6-1.9,0.5h-2v-4.5h2.4h0.6C390.1,112.5,390.3,112.5,390.6,112.7"/>
				<path class="st6" d="M394.5,123.6h7.4v-1.4h-5.9v-4.3h4.9v-1.4h-4.9v-3.9h5.7v-1.4h-7.2L394.5,123.6"/>
				<path class="st6" d="M410.3,123.6h1.8l-1.8-3.5c-0.2-0.4-0.4-0.8-0.7-1.2c-0.3-0.4-0.6-0.7-1-1
					c0.8-0.1,1.4-0.5,1.9-1.1c0.5-0.6,0.7-1.4,0.7-2.2c0-0.7-0.1-1.3-0.4-1.9c-0.1-0.3-0.3-0.6-0.6-0.8c-0.2-0.2-0.5-0.4-0.7-0.5
					c-0.3-0.1-0.6-0.2-0.8-0.2c-0.3,0-0.7-0.1-1-0.1h-4.4v12.5h1.5V118h1.2c0.2,0,0.5,0,0.7,0.1c0.2,0.1,0.4,0.2,0.6,0.3
					c0.2,0.2,0.3,0.4,0.5,0.6c0.2,0.3,0.4,0.6,0.6,0.9c0.2,0.4,0.4,0.7,0.7,1.1c0.2,0.4,0.4,0.8,0.6,1.1c0.2,0.4,0.3,0.7,0.5,0.9
					L410.3,123.6 M407.8,112.4c0.5,0,1.1,0.2,1.5,0.6c0.4,0.4,0.5,1,0.5,1.5c0.1,0.6-0.2,1.2-0.6,1.6c-0.5,0.3-1.1,0.5-1.7,0.5h-2.6
					v-4.2L407.8,112.4"/>
				<path class="st6" d="M421,123.6h1.7l-4-12.5h-1.5l-3.8,12.5h1.6l1.1-3.7h3.9L421,123.6 M417.9,113.2
					c0.2,0.9,0.5,1.8,0.7,2.6l0.8,2.6h-3l0.8-2.6C417.4,115,417.7,114.1,417.9,113.2"/>
				<path class="st6" d="M425.8,112.5h3.2v-1.4h-7.8v1.4h3.2v11.1h1.5L425.8,112.5"/>
				<path class="st6" d="M430.2,123.6h1.5v-12.5h-1.5V123.6"/>
				<path class="st6" d="M438.5,123.6l3.9-12.5h-1.5l-2.6,9c-0.1,0.3-0.2,0.5-0.2,0.8l-0.2,0.8
					c-0.1-0.3-0.1-0.5-0.2-0.8c-0.1-0.2-0.1-0.5-0.2-0.7l-2.6-9h-1.6l3.8,12.4H438.5"/>
				<path class="st6" d="M448.2,123.6h1.7l-4-12.5h-1.5l-3.8,12.5h1.6l1.1-3.7h3.8L448.2,123.6 M445,113.2
					c0.2,0.9,0.5,1.8,0.7,2.6l0.8,2.6h-3l0.8-2.6C444.6,115,444.8,114.1,445,113.2"/>
				<path class="st6" d="M454.3,123.8c0.5,0,1-0.1,1.5-0.3c0.4-0.2,0.8-0.5,1.1-0.8c0.3-0.3,0.6-0.7,0.8-1.2
					c0.2-0.5,0.3-1,0.3-1.5c0-0.5-0.1-1.1-0.3-1.5c-0.2-0.4-0.4-0.7-0.7-1c-0.3-0.3-0.6-0.5-1-0.7c-0.4-0.2-0.8-0.3-1.1-0.4
					l-0.6-0.2l-0.5-0.2l-0.7-0.3c-0.2-0.1-0.4-0.2-0.6-0.3c-0.2-0.1-0.3-0.3-0.5-0.5c-0.1-0.2-0.2-0.5-0.1-0.8
					c0-0.5,0.2-1.1,0.6-1.4c0.4-0.3,1-0.5,1.5-0.4c0.6,0,1.2,0.2,1.6,0.6c0.4,0.5,0.6,1.1,0.6,1.8l1.4-0.2c0-1-0.4-2-1.1-2.7
					c-0.7-0.7-1.7-1-2.6-1c-0.5,0-1,0.1-1.4,0.3c-0.4,0.2-0.8,0.4-1.1,0.7c-0.3,0.3-0.6,0.7-0.7,1.1c-0.2,0.4-0.2,0.9-0.2,1.4
					c0,0.5,0.1,1,0.3,1.4c0.2,0.4,0.4,0.7,0.7,1c0.3,0.2,0.6,0.5,1,0.6c0.4,0.1,0.8,0.3,1.1,0.4l0.6,0.2l0.5,0.2
					c0.2,0.1,0.5,0.2,0.7,0.3c0.2,0.1,0.4,0.2,0.6,0.4c0.2,0.2,0.3,0.4,0.4,0.6c0.1,0.2,0.2,0.5,0.1,0.8c0,0.6-0.2,1.2-0.6,1.6
					c-0.5,0.4-1.1,0.6-1.7,0.5c-0.7,0.1-1.5-0.2-2-0.7c-0.5-0.6-0.8-1.3-0.8-2.1l-1.3,0.2c-0.1,1.1,0.4,2.3,1.1,3.1
					c0.8,0.7,1.9,1.1,3,1.1"/>
				<path class="st6" d="M469.6,122.8c0.4-0.3,0.7-0.7,0.9-1.1c0.2-0.5,0.4-0.9,0.6-1.4c0.1-0.5,0.2-1,0.3-1.5
					c0.1-0.5,0.1-0.9,0.1-1.4c0-0.6,0-1.2-0.1-1.7c-0.1-0.6-0.2-1.2-0.5-1.8c-0.2-0.6-0.5-1.1-0.9-1.5c-0.4-0.5-0.9-0.8-1.5-1
					c-0.3-0.1-0.6-0.1-0.9-0.2h-0.9h-3.4v12.5h3.6c0.5,0,1-0.1,1.4-0.2C468.8,123.3,469.2,123,469.6,122.8 M468.3,112.8
					c0.4,0.2,0.6,0.5,0.9,0.8c0.2,0.3,0.4,0.7,0.5,1.1c0.1,0.4,0.2,0.8,0.2,1.3c0,0.4,0.1,0.8,0.1,1.2c0,0.4,0,0.8-0.1,1.3
					c0,0.5-0.1,0.9-0.3,1.4c-0.1,0.4-0.3,0.8-0.5,1.2c-0.2,0.3-0.5,0.6-0.9,0.8c-0.2,0.1-0.5,0.2-0.7,0.2c-0.3,0-0.5,0-0.8,0h-2
					v-9.6h1.9c0.3,0,0.6,0,0.8,0.1C467.8,112.6,468.1,112.6,468.3,112.8"/>
				<path class="st6" d="M472.9,123.6h7.4v-1.4h-5.9v-4.3h4.9v-1.4h-4.9v-3.9h5.7v-1.4h-7.2L472.9,123.6"/>
				<path class="st6" d="M489.5,112.5h3.2v-1.4h-7.8v1.4h3.2v11.1h1.5V112.5"/>
				<path class="st6" d="M500.8,123.6h1.8l-1.8-3.5c-0.2-0.4-0.4-0.8-0.7-1.2c-0.3-0.4-0.6-0.7-1-1
					c0.8-0.1,1.4-0.5,1.9-1.1c0.5-0.6,0.7-1.4,0.7-2.2c0-0.7-0.1-1.3-0.4-1.9c-0.1-0.3-0.3-0.6-0.6-0.8c-0.2-0.2-0.5-0.4-0.7-0.5
					c-0.3-0.1-0.6-0.2-0.8-0.2c-0.3,0-0.7-0.1-1-0.1h-4.4v12.5h1.5V118h1.2c0.2,0,0.5,0,0.7,0.1c0.2,0.1,0.4,0.2,0.6,0.3
					c0.2,0.2,0.3,0.4,0.5,0.6c0.2,0.3,0.4,0.6,0.6,0.9c0.2,0.4,0.4,0.7,0.6,1.1c0.2,0.4,0.4,0.8,0.6,1.1s0.3,0.7,0.5,0.9
					L500.8,123.6 M498.2,112.4c0.5,0,1.1,0.2,1.5,0.6c0.4,0.4,0.5,1,0.5,1.5c0.1,0.6-0.2,1.2-0.6,1.6c-0.5,0.3-1.1,0.5-1.7,0.5h-2.6
					v-4.2h3"/>
				<path class="st6" d="M511.5,123.6h1.7l-4-12.5h-1.5l-3.8,12.5h1.6l1.1-3.7h3.9L511.5,123.6 M508.4,113.2
					c0.2,0.9,0.5,1.8,0.7,2.6l0.8,2.6h-3l0.8-2.6C508,115,508.2,114.1,508.4,113.2"/>
				<path class="st6" d="M518.4,123.6c1,0.1,2-0.3,2.8-0.9c0.7-0.7,1.1-1.7,1-2.8c0-0.6-0.1-1.2-0.4-1.8
					c-0.3-0.5-0.7-1-1.3-1.2c0.4-0.3,0.7-0.7,0.9-1.1c0.2-0.5,0.3-0.9,0.3-1.4c0.1-0.9-0.3-1.8-0.9-2.4c-0.7-0.6-1.5-0.9-2.4-0.9
					h-3.7v12.5L518.4,123.6 M517.9,112.5c0.3,0,0.7,0,1,0.1c0.3,0,0.5,0.1,0.7,0.3c0.2,0.1,0.4,0.4,0.4,0.6c0.1,0.3,0.2,0.7,0.2,1
					c0,0.3,0,0.6-0.1,0.9c-0.1,0.2-0.2,0.4-0.4,0.6c-0.2,0.1-0.4,0.2-0.7,0.3c-0.3,0.1-0.6,0.1-0.9,0.1h-2v-3.8L517.9,112.5
					 M518.2,117.8c0.6,0,1.3,0.1,1.8,0.5c0.5,0.4,0.7,1.1,0.7,1.7c0.1,0.6-0.2,1.2-0.6,1.7c-0.5,0.4-1.1,0.5-1.7,0.5h-2.3v-4.3
					H518.2"/>
				<path class="st6" d="M530.5,123.6h1.7l-4-12.5h-1.5l-3.8,12.5h1.6l1.1-3.7h3.9L530.5,123.6 M527.5,113.2
					c0.2,0.9,0.5,1.8,0.7,2.6l0.8,2.6h-3l0.8-2.6C527.1,115,527.3,114.1,527.5,113.2"/>
				<path class="st6" d="M535,123.8c0.5,0,1.1-0.1,1.5-0.4c0.4-0.3,0.7-0.6,0.8-1c0.2-0.4,0.3-0.9,0.4-1.4
					c0.1-0.5,0.1-0.9,0.1-1.4v-8.5h-1.5v8.8c0,0.3,0,0.5,0,0.8c0,0.3-0.1,0.5-0.2,0.8c-0.1,0.2-0.2,0.4-0.4,0.6
					c-0.2,0.2-0.5,0.3-0.8,0.2c-0.2,0-0.5-0.1-0.7-0.2c-0.2-0.1-0.3-0.3-0.4-0.6c-0.1-0.2-0.2-0.5-0.2-0.8c0-0.3,0-0.6,0-0.9
					l-1.3,0.2v0.2c0,0.4,0,0.8,0.1,1.3c0.1,0.4,0.2,0.8,0.4,1.1c0.2,0.3,0.5,0.6,0.8,0.8C534.1,123.7,534.6,123.8,535,123.8"/>
				<path class="st6" d="M543.9,123.8c0.5,0,1.1-0.1,1.5-0.3c0.4-0.2,0.9-0.4,1.2-0.8c0.4-0.3,0.7-0.7,0.9-1.1
					c0.3-0.4,0.5-0.9,0.6-1.3c0.2-0.5,0.3-1,0.3-1.5c0.1-0.5,0.1-1,0.1-1.4c0-0.7-0.1-1.5-0.3-2.2c-0.1-0.7-0.4-1.5-0.8-2.1
					c-0.4-0.6-0.9-1.2-1.5-1.6c-0.6-0.4-1.4-0.7-2.2-0.6c-0.6,0-1.1,0.1-1.6,0.3c-0.5,0.2-0.9,0.5-1.2,0.8c-0.4,0.3-0.7,0.7-0.9,1.2
					c-0.2,0.4-0.4,0.9-0.6,1.4c-0.1,0.5-0.3,1-0.3,1.5c-0.1,0.5-0.1,1-0.1,1.5c0,0.7,0.1,1.4,0.3,2.2c0.2,0.7,0.5,1.4,0.8,2
					c0.4,0.6,0.9,1.1,1.5,1.5C542.4,123.6,543.1,123.8,543.9,123.8 M543.9,112.3c0.6,0,1.1,0.2,1.5,0.5c0.4,0.3,0.8,0.8,1,1.3
					c0.3,0.5,0.4,1.1,0.5,1.6c0.1,0.6,0.1,1.1,0.2,1.7c0,0.6-0.1,1.1-0.2,1.7c-0.1,0.6-0.3,1.1-0.5,1.6c-0.2,0.5-0.6,0.9-1,1.2
					c-0.9,0.6-2.1,0.6-3.1,0c-0.4-0.3-0.8-0.7-1-1.2c-0.3-0.5-0.4-1-0.5-1.6c-0.1-0.5-0.1-1.1-0.2-1.6c0-0.3,0-0.7,0-1
					c0-0.4,0.1-0.7,0.1-1.1c0.1-0.3,0.2-0.7,0.3-1c0.1-0.3,0.3-0.6,0.5-0.9c0.3-0.3,0.6-0.6,1-0.9
					C543,112.4,543.5,112.3,543.9,112.3"/>
			</g>
			<g>
				<path class="st7" d="M161.9,9.9h41c0.3,0.7,0.5,1.5,0.8,2.4c0.3,0.9,0.4,1.8,0.4,2.7c0,0.8-0.1,1.7-0.4,2.5
					c-0.3,0.8-0.5,1.6-0.8,2.4h-31.1v16.2h21.7c0.3,0.7,0.5,1.5,0.8,2.4c0.3,0.9,0.4,1.8,0.4,2.8c0,0.9-0.2,1.8-0.5,2.7
					c-0.2,0.7-0.4,1.4-0.7,2.1h-21.7v29.6c-0.9,0.3-1.8,0.5-2.7,0.7c-0.8,0.2-1.6,0.4-2.5,0.4c-0.9,0-1.9-0.1-2.8-0.4
					c-0.7-0.2-1.3-0.4-2-0.7V46c-0.4-0.8-0.7-1.6-1-2.5c-0.3-0.9-0.5-1.8-0.5-2.7c0-0.9,0.1-1.8,0.4-2.7c0.3-1,0.6-1.7,0.8-2.1
					L161.9,9.9"/>
				<path class="st7" d="M223.8,47.8h16.7L232,21.6L223.8,47.8 M243.2,57.6h-22.7l-5.9,18.2c-0.8,0.3-1.6,0.5-2.6,0.8
					c-0.9,0.3-1.8,0.4-2.8,0.4c-0.9,0-1.9-0.2-2.8-0.5c-0.7-0.2-1.4-0.4-2.1-0.7l6.2-18.4c-0.1-0.3-0.3-1.1-0.7-2.2
					c-0.2-0.8-0.3-1.7-0.4-2.6c0-0.8,0.1-1.6,0.4-2.4c0.3-0.8,0.5-1.6,0.8-2.3h3.1l12.2-36.7c0.9-0.3,1.8-0.5,2.9-0.8
					c1-0.2,2.1-0.4,3.1-0.4c1.1,0,2.2,0.1,3.3,0.4c1.1,0.3,2.2,0.5,3.1,0.8l21.6,64.6l-2.5,0.7c-1,0.3-2,0.5-3,0.5
					c-0.9,0-1.9-0.1-2.8-0.4l-2.6-0.8L243.2,57.6"/>
				<path class="st7" d="M314.1,60.8c0,4.5-2.3,8.3-6.8,11.5c-4.2,3-9.1,4.6-14.2,4.6c-11,0-18.6-3.3-22.9-9.8
					s-6.4-14.3-6.3-23.5c0-9,2.3-16.9,6.8-23.6s12-10,22.4-10c5.1,0,10.1,1.6,14.2,4.5c4.5,3,6.8,6.7,6.8,11.2
					c-0.9,0.3-1.8,0.5-2.7,0.7c-0.9,0.2-1.8,0.3-2.8,0.3c-1.1,0-2.1-0.1-3.1-0.3c-0.9-0.3-1.6-0.5-2.1-0.7c0-1.8-1.1-3.3-3.4-4.5
					c-2.2-1.1-4.6-1.7-7.1-1.7c-7.3,0-12.3,2.5-15,7.6c-2.7,5-4.1,10.6-4.1,16.3c-0.1,5.8,1.2,11.5,3.7,16.6c2.5,5,7.6,7.5,15.2,7.5
					c2.5,0,4.9-0.6,7.2-1.7c2.4-1.2,3.5-2.8,3.5-4.8c0.8-0.3,1.7-0.5,2.7-0.8c0.9-0.3,1.8-0.5,2.7-0.5c1.1,0,2.1,0.2,3.1,0.5
					C312.8,60.3,313.5,60.5,314.1,60.8"/>
				<path class="st7" d="M367.1,14.8c0,1-0.1,1.9-0.4,2.9c-0.3,1-0.5,1.7-0.7,2.2h-17.9v55.8
					c-0.7,0.3-1.5,0.5-2.4,0.8c-0.9,0.3-1.8,0.4-2.7,0.4c-0.9,0-1.9-0.2-2.8-0.5c-0.7-0.2-1.4-0.4-2.1-0.7V19.8h-17.7
					c-0.3-0.7-0.5-1.5-0.8-2.4c-0.3-0.9-0.4-1.8-0.4-2.7c0-0.8,0.1-1.7,0.4-2.5c0.3-0.8,0.5-1.6,0.8-2.4H366
					c0.3,0.8,0.5,1.7,0.7,2.6C366.9,13.2,367,14,367.1,14.8"/>
				<path class="st7" d="M442.4,14.8c0,1-0.1,1.9-0.4,2.9c-0.3,1-0.5,1.7-0.7,2.2h-17.9v55.8
					c-0.7,0.3-1.5,0.5-2.4,0.8c-0.9,0.3-1.8,0.4-2.7,0.4c-0.9,0-1.9-0.2-2.8-0.5c-0.7-0.2-1.4-0.4-2.1-0.7V19.8h-17.7
					c-0.3-0.7-0.5-1.5-0.8-2.4c-0.3-0.9-0.4-1.8-0.4-2.7c0-0.8,0.1-1.7,0.4-2.5c0.3-0.8,0.5-1.6,0.8-2.4h45.5
					c0.3,0.8,0.5,1.7,0.7,2.6C442.3,13.2,442.4,14,442.4,14.8"/>
				<path class="st7" d="M466.6,75.7c-0.7,0.3-1.5,0.5-2.4,0.8c-0.9,0.3-1.8,0.4-2.8,0.4c-0.9,0-1.8-0.2-2.7-0.5
					c-0.7-0.2-1.4-0.4-2.1-0.7V19.9h-7.5c-0.3-0.7-0.5-1.5-0.8-2.5c-0.2-0.8-0.3-1.7-0.3-2.6c0-1,0.1-1.9,0.4-2.9
					c0.2-0.7,0.4-1.4,0.7-2.1h17.4V75.7"/>
				<path class="st7" d="M524.2,60.8c0,4.5-2.3,8.3-6.8,11.5c-4.2,3-9.1,4.6-14.2,4.6c-11,0-18.6-3.3-22.9-9.8
					c-4.3-6.5-6.4-14.3-6.3-23.5c0-9,2.3-16.9,6.8-23.6s12-10,22.4-10c5.1,0,10.1,1.6,14.2,4.5c4.5,3,6.8,6.7,6.8,11.2
					c-0.9,0.3-1.8,0.5-2.7,0.7c-0.9,0.2-1.8,0.3-2.8,0.3c-1.1,0-2.1-0.1-3.2-0.3c-0.9-0.3-1.6-0.5-2.1-0.7c0-1.8-1.1-3.3-3.4-4.5
					c-2.2-1.1-4.6-1.7-7-1.8c-7.3,0-12.3,2.5-15,7.5c-2.7,5-4.1,10.6-4.1,16.3c-0.1,5.8,1.2,11.5,3.7,16.6c2.5,5,7.6,7.5,15.2,7.5
					c2.5,0,4.9-0.6,7.2-1.7c2.4-1.2,3.5-2.8,3.5-4.8c0.8-0.3,1.7-0.5,2.7-0.8c0.9-0.3,1.8-0.5,2.7-0.5c1.1,0,2.1,0.2,3.2,0.5
					C522.8,60.3,523.5,60.5,524.2,60.8"/>
				<path class="st8" d="M373.4,0v96.3h17.7c0.2-0.5,0.3-1.1,0.5-1.6c0.2-0.7,0.3-1.4,0.3-2.2c0-0.7-0.1-1.3-0.3-1.9
					c-0.2-0.7-0.3-1.3-0.5-1.9h-10.6V7.6h10.6c0.2-0.5,0.3-1.2,0.5-1.9c0.1-0.6,0.2-1.3,0.3-1.9c0-0.7-0.1-1.4-0.3-2.2
					c-0.1-0.5-0.3-1.1-0.5-1.6H373.4z"/>
				<path class="st8" d="M545.6,0v96.3h-17.7c-0.2-0.5-0.3-1.1-0.5-1.6c-0.2-0.7-0.3-1.4-0.3-2.2
					c0-0.7,0.1-1.3,0.3-1.9c0.2-0.7,0.3-1.3,0.5-1.9h10.6V7.6H528c-0.2-0.5-0.3-1.2-0.5-1.9c-0.1-0.6-0.2-1.3-0.3-1.9
					c0-0.7,0.1-1.4,0.3-2.2c0.1-0.5,0.2-1.1,0.4-1.6H545.6z"/>
			</g>
			<g>
				<path class="st9" d="M208.4,90.6v3.7h-53.7v-3.7H208.4z"/>
				<path class="st1" d="M262,90.6v3.7h-53.6v-3.7H262z"/>
				<path class="st2" d="M315.7,90.6v3.7H262v-3.7H315.7z"/>
				<path class="st3" d="M369.4,90.6v3.7h-53.6v-3.7H369.4z"/>
				<path class="st4" d="M439.6,90.6v3.7h-41v-3.7H439.6z"/>
				<path class="st5" d="M480.6,90.6v3.7h-41v-3.7H480.6z"/>
				<path class="st10" d="M521.7,90.6v3.7h-41v-3.7H521.7z"/>
			</g>
		</g>
	</g>
</g>
</svg>
